<?xml version="1.0" encoding="UTF-8"?>
<svg id="a" data-name="Livello 1" xmlns="http://www.w3.org/2000/svg" width="298.01" height="225.62" viewBox="0 0 298.01 225.62">
  <defs>
    <style>
      .b {
        fill: #fff;
      }
    </style>
  </defs>
  <path class="b" d="M187.07,178.03l-74.99-.23c-9.59-.03-19.59-10.79-19.61-20.64l-.16-136.36C94.29,8.34,103.59-.01,116.01,0l67.13.07c11.26.01,22.27,9.99,22.28,21.58l.16,135.13c-1.21,10.38-8.03,18.44-18.5,21.25ZM181.05,165.04c4.66,0,11.21-3.15,11.21-8.85l.04-132.88c0-5.06-3.64-9.51-8.74-9.52l-67.47-.06c-5.53,0-9.39,2.59-10.57,8.25l-.09,132.94c0,5.44,3.67,9.17,8.78,9.96l66.84.14Z"/>
  <path class="b" d="M60.79,162.38l-41.93.28c-9.33.06-18.71-7.44-18.72-17.44L0,39.24c-.01-9.82,6.52-19.07,17.04-19.08l43.15-.06c7.95-.01,16.86,7.59,16.86,16.14v109.98c-.02,8-8.25,16.09-16.25,16.14ZM60.4,149.04c1.89-1.21,3.57-3.65,3.57-5.86l-.02-104.9c0-2.21-2.87-4.96-5-4.96l-41.7.11c-1.73.67-3.75,2.73-3.75,4.84l.04,105.95c.4,2.87,2.75,4.81,5.43,4.81h41.44Z"/>
  <path class="b" d="M282.48,162.55l-45.6-.17c-8.59-.03-16.23-8.35-16.23-17.15l-.04-106.97c0-9.04,7.1-18.1,16.3-18.1l44.08-.04c10.46,0,17.02,9.32,17.02,19.13v102.94c0,9.89-4.93,18.28-15.53,20.36ZM280.39,149.02c2.55-.94,4.26-3.26,4.26-5.88l.02-104.68c-.21-3.07-2.68-5.05-5.68-5.05l-39.86.05c-3.05,0-5.07,2.84-5.07,5.82l-.02,103.91c0,3.78,2.45,5.86,5.9,5.86l40.46-.03Z"/>
  <circle class="b" cx="149.89" cy="215.02" r="10.52"/>
  <circle class="b" cx="202.49" cy="215.09" r="10.53"/>
  <circle class="b" cx="96.75" cy="215.04" r="10.5"/>
</svg>