<?xml version="1.0" encoding="UTF-8"?>
<svg xmlns="http://www.w3.org/2000/svg" viewBox="0 0 155.057 129.318" width="512" height="427" fill="none" shape-rendering="geometricPrecision">
  <title>Icona bianca di stivale alato</title>
  <path d="M 50.000,43.209 L 45.000,43.166 L 42.000,41.879 L 40.817,40.139 L 40.405,33.139 L 39.000,31.727 L 25.000,31.494 L 22.481,30.139 L 21.000,27.877 L 20.575,26.139 L 21.479,25.139 L 38.000,24.941 L 39.341,24.139 L 39.761,23.139 L 39.768,22.139 L 39.000,20.736 L 37.000,20.045 L 16.000,19.989 L 14.000,19.345 L 13.000,18.512 L 11.577,16.139 L 11.413,14.139 L 12.000,13.611 L 36.000,13.472 L 37.343,12.139 L 37.542,11.139 L 36.471,9.139 L 35.000,8.601 L 6.000,8.430 L 2.896,6.139 L 2.000,2.924 L 3.000,2.000 L 39.000,2.024 L 43.000,2.936 L 46.000,4.718 L 49.019,8.139 L 50.325,11.139 L 50.609,13.139 L 50.741,42.139 L 50.000,43.209 Z" fill="#FFFFFF"/>
  <path d="M 98.000,38.429 L 56.000,38.407 L 55.628,26.139 L 56.000,25.230 L 57.000,25.044 L 95.000,25.355 L 97.000,26.331 L 98.719,29.139 L 98.909,37.139 L 98.000,38.429 Z" fill="#FFFFFF"/>
  <path d="M 122.000,111.776 L 84.000,111.712 L 82.773,109.139 L 76.470,86.139 L 73.456,80.139 L 68.000,74.747 L 64.000,72.590 L 57.000,70.930 L 49.000,70.950 L 48.063,70.139 L 48.163,65.139 L 47.693,63.139 L 35.966,50.139 L 34.653,48.139 L 34.164,46.139 L 34.159,37.139 L 35.000,36.615 L 35.580,37.139 L 35.988,41.139 L 36.688,43.139 L 38.000,44.829 L 41.000,47.185 L 44.000,47.984 L 54.000,47.903 L 55.168,47.139 L 55.792,44.139 L 57.000,43.749 L 95.000,43.774 L 95.432,44.139 L 95.575,65.139 L 94.959,66.139 L 88.000,70.585 L 86.000,72.400 L 84.606,75.139 L 84.606,78.139 L 85.511,80.139 L 87.000,81.751 L 88.000,82.540 L 91.000,83.399 L 95.000,82.329 L 102.000,77.820 L 104.371,79.139 L 104.210,80.139 L 99.777,83.139 L 98.449,85.139 L 97.919,87.139 L 98.759,91.139 L 101.000,93.554 L 103.000,94.510 L 107.000,94.294 L 118.000,87.514 L 127.000,92.792 L 127.292,93.139 L 125.604,95.139 L 123.538,99.139 L 122.840,103.139 L 122.850,111.139 L 122.000,111.776 Z" fill="#FFFFFF"/>
  <path d="M 92.000,78.280 L 91.000,78.416 L 89.551,77.139 L 89.538,76.139 L 90.283,75.139 L 104.167,66.139 L 105.000,65.708 L 106.542,66.139 L 107.276,67.139 L 107.172,68.139 L 106.000,69.367 L 92.000,78.280 Z" fill="#FFFFFF"/>
  <path d="M 78.000,111.596 L 44.000,111.787 L 42.931,111.139 L 40.817,107.139 L 39.668,103.139 L 39.657,91.139 L 41.741,85.139 L 47.000,76.222 L 48.000,75.868 L 56.000,75.879 L 61.000,76.805 L 65.000,78.760 L 68.000,81.378 L 70.189,84.139 L 72.214,89.139 L 78.332,111.139 L 78.000,111.596 Z" fill="#FFFFFF"/>
  <path d="M 106.000,89.151 L 104.000,89.518 L 102.831,88.139 L 103.035,87.139 L 104.000,86.046 L 118.000,77.098 L 119.000,76.857 L 120.000,77.498 L 120.565,79.139 L 119.903,80.139 L 106.000,89.151 Z" fill="#FFFFFF"/>
  <path d="M 149.000,111.764 L 129.000,111.767 L 128.000,111.381 L 127.951,102.139 L 129.566,98.139 L 132.000,95.787 L 135.000,94.629 L 143.000,94.575 L 146.000,95.767 L 148.393,98.139 L 149.364,100.139 L 149.726,111.139 L 149.000,111.764 Z" fill="#FFFFFF"/>
  <path d="M 148.000,127.195 L 89.000,127.317 L 88.000,126.660 L 84.590,121.139 L 83.000,119.595 L 76.000,119.492 L 74.000,120.065 L 69.000,127.019 L 68.000,127.318 L 43.000,127.254 L 40.182,126.139 L 38.533,124.139 L 38.072,118.139 L 38.327,117.139 L 39.000,116.722 L 152.000,116.720 L 152.762,117.139 L 153.057,118.139 L 152.996,122.139 L 152.352,124.139 L 150.000,126.512 L 148.000,127.195 Z" fill="#FFFFFF"/>
</svg>